# xmcd
#
# Track frame offsets:
#	150
#	25195
#	40842
#	56027
#	70235
#	83535
#	102645
#	116465
#	128227
#	142370
#	157445
#	168910
#	182995
#	194970
#	207965
#	219822
#	235102
#	248270
#	262627
#	273257
#
# Disc length: 3823
#
# Revision: 2
# Processed by: cddbd v1.5.1PL0 Copyright (c) Steve Scherf et al.
# Submitted via: ExactAudioCopy v0.95a3
# Normalized: r1:DSETVAR1
#
DISCID=240eed14
DTITLE=Various Artist - Blues Around Midnight
DYEAR=1988
DGENRE=Blues
TTITLE0=Larry Davis - Three O'Clock Blues
TTITLE1=Johnny Copeland - Old Man Blues
TTITLE2=Larry Davis - Something About You
TTITLE3=Lowell Fulson - Blues Around Midnight
TTITLE4=T. Bone Walker - Love Will Lead You Right
TTITLE5=B.B. King - You're Breaking My Heart
TTITLE6=B.B. King - Down Now
TTITLE7=Lowell Fulson - Shattered Dreams
TTITLE8=Jimmy Nelson - T-99 Blues
TTITLE9=Ray Charles - I'm Wonderin' And Wonderin'
TTITLE10=Jimmy Nelson - Secondhand Fool
TTITLE11=Saunders King - Quit Hangin' Around
TTITLE12=Frankie Ervin With Johnny Moore's 3 Blazers - Dragnet Blues
TTITLE13=Mari Jones - Crazy With The Blues
TTITLE14=Lorenzo Holden - Love Is Here To Stay
TTITLE15=Jimmy Witherspoon - I Need Somebody
TTITLE16=Jimmy Witherspoon - Gee Baby Ain't I Good To You
TTITLE17=Vivianne Green - Picture Of You
TTITLE18=Frankie Ervin With Johnny Moore's 3 Blazers - Playing The Numbers
TTITLE19=Mari Jones - It Just Wasn't True
EXTD=
EXTT0=
EXTT1=
EXTT2=
EXTT3=
EXTT4=
EXTT5=
EXTT6=
EXTT7=
EXTT8=
EXTT9=
EXTT10=
EXTT11=
EXTT12=
EXTT13=
EXTT14=
EXTT15=
EXTT16=
EXTT17=
EXTT18=
EXTT19=
PLAYORDER=
